<?xml version="1.0" encoding="utf-8"?>
<!-- Generator: Adobe Illustrator 16.0.0, SVG Export Plug-In . SVG Version: 6.00 Build 0)  -->
<!DOCTYPE svg PUBLIC "-//W3C//DTD SVG 1.1//EN" "http://www.w3.org/Graphics/SVG/1.1/DTD/svg11.dtd">
<svg version="1.1" id="Layer_1" xmlns="http://www.w3.org/2000/svg" xmlns:xlink="http://www.w3.org/1999/xlink" x="0px" y="0px"
	 width="600px" height="200px" viewBox="0 0 600 200" enable-background="new 0 0 600 200" xml:space="preserve">
<g>
	<g>
		<g>
			<path fill="#F9ED32" d="M98.642,12.945c15.81,16.027,15.81,42.014,0,58.039l-57.243,58.033
				c-15.812-16.031-15.812-42.004,0-58.033L98.642,12.945z"/>
			<path fill="#FBB040" d="M41.398,129.018c15.821,16.027,41.445,16.027,57.243,0l57.244-58.033
				c-15.811-16.025-41.435-16.025-57.244,0L41.398,129.018z"/>
			<path fill="#F7941E" d="M155.886,70.984c15.822,16.029,15.822,42.002,0,58.033l-57.244,58.037
				c-15.798-16.033-15.798-42.01,0-58.037L155.886,70.984z"/>
		</g>
		<path fill="#FFF200" d="M98.642,12.504c47.587,0,86.312,39.25,86.312,87.496c0,48.248-38.725,87.5-86.312,87.5
			c-47.586,0-86.312-39.252-86.312-87.5C12.33,51.754,51.056,12.504,98.642,12.504 M98.642,0C44.167,0,0,44.775,0,100
			s44.167,100,98.642,100c54.476,0,98.642-44.775,98.642-100S153.117,0,98.642,0L98.642,0z"/>
	</g>
	<g>
		<g>
			<path d="M267.451,87.02h-18.807v-5.852c0-2.73-0.241-4.47-0.722-5.218c-0.481-0.747-1.283-1.121-2.405-1.121
				c-1.219,0-2.141,0.504-2.766,1.513c-0.625,1.009-0.938,2.537-0.938,4.587c0,2.635,0.351,4.619,1.055,5.952
				c0.671,1.334,2.579,2.943,5.722,4.827c9.015,5.424,14.692,9.875,17.033,13.353c2.34,3.479,3.511,9.087,3.511,16.823
				c0,5.624-0.649,9.77-1.948,12.435c-1.299,2.666-3.808,4.9-7.528,6.704c-3.72,1.805-8.049,2.707-12.987,2.707
				c-5.419,0-10.045-1.041-13.877-3.121c-3.832-2.08-6.342-4.729-7.528-7.948c-1.187-3.218-1.779-7.785-1.779-13.702v-5.169h18.807
				v9.606c0,2.958,0.264,4.86,0.793,5.705c0.529,0.846,1.467,1.268,2.814,1.268c1.347,0,2.349-0.536,3.006-1.608
				c0.657-1.073,0.986-2.666,0.986-4.779c0-4.648-0.625-7.688-1.876-9.118c-1.283-1.431-4.442-3.819-9.476-7.168
				c-5.035-3.381-8.37-5.835-10.005-7.363c-1.635-1.527-2.991-3.641-4.064-6.339c-1.075-2.698-1.611-6.145-1.611-10.338
				c0-6.046,0.761-10.467,2.285-13.263c1.523-2.796,3.984-4.981,7.383-6.559c3.398-1.576,7.504-2.365,12.313-2.365
				c5.259,0,9.741,0.862,13.444,2.585s6.157,3.893,7.359,6.509c1.202,2.617,1.804,7.063,1.804,13.337V87.02z"/>
			<path d="M294.916,63.126v10.289h-20.009V63.126H294.916z M294.916,77.364v64.707h-20.009V77.364H294.916z"/>
			<path d="M321.082,77.364l-0.337,6.156c1.507-2.442,3.302-4.273,5.387-5.495c2.084-1.221,4.457-1.831,7.119-1.831
				c5.194,0,9.284,2.442,12.266,7.326c1.636-2.442,3.479-4.273,5.532-5.495c2.051-1.221,4.328-1.831,6.829-1.831
				c3.303,0,6.037,0.813,8.201,2.438c2.165,1.626,3.552,3.617,4.161,5.974c0.608,2.357,0.914,6.186,0.914,11.483v45.982h-18.855
				V99.893c0-5.526-0.186-8.948-0.553-10.265c-0.369-1.316-1.227-1.975-2.574-1.975c-1.379,0-2.269,0.65-2.669,1.95
				c-0.401,1.301-0.602,4.729-0.602,10.289v42.179h-18.855v-41.106c0-6.339-0.153-10.143-0.457-11.41
				c-0.305-1.268-1.147-1.901-2.525-1.901c-0.866,0-1.604,0.333-2.212,0.999c-0.609,0.667-0.946,1.479-1.01,2.438
				c-0.064,0.959-0.096,2.999-0.096,6.119v44.861H301.89V77.364H321.082z"/>
			<path d="M397.609,77.364l-0.337,5.718c1.731-2.313,3.64-4.038,5.724-5.179c2.084-1.14,4.361-1.709,6.831-1.709
				c3.014,0,5.619,0.821,7.815,2.462c2.196,1.643,3.567,3.535,4.113,5.681c0.545,2.146,0.817,5.787,0.817,10.923v27.258
				c0,5.885-0.345,10.069-1.034,12.557c-0.69,2.486-2.101,4.47-4.232,5.948c-2.134,1.479-4.707,2.219-7.721,2.219
				c-2.404,0-4.634-0.569-6.686-1.709c-2.053-1.141-3.929-2.833-5.628-5.081v14.836H377.84V77.364H397.609z M403.141,96.187
				c0-3.999-0.145-6.42-0.433-7.266c-0.289-0.845-1.091-1.268-2.405-1.268c-1.283,0-2.108,0.487-2.477,1.463
				c-0.369,0.975-0.554,3.332-0.554,7.07v26.819c0,3.9,0.192,6.339,0.577,7.313c0.385,0.976,1.219,1.463,2.501,1.463
				c1.251,0,2.028-0.446,2.333-1.341c0.305-0.894,0.457-3.063,0.457-6.51V96.187z"/>
			<path d="M448.979,63.126v78.945h-20.01V63.126H448.979z"/>
			<path d="M499.966,110.863H474.81v13.995c0,2.926,0.208,4.812,0.625,5.656c0.417,0.846,1.219,1.268,2.405,1.268
				c1.475,0,2.461-0.561,2.958-1.682c0.497-1.122,0.746-3.292,0.746-6.51v-8.533h18.422v4.778c0,3.998-0.249,7.07-0.745,9.216
				c-0.498,2.146-1.66,4.438-3.487,6.876c-1.828,2.438-4.146,4.267-6.951,5.485s-6.324,1.828-10.558,1.828
				c-4.104,0-7.729-0.602-10.87-1.804c-3.144-1.202-5.588-2.853-7.336-4.949s-2.958-4.405-3.631-6.925
				c-0.674-2.519-1.011-6.184-1.011-10.995V99.697c0-5.656,0.753-10.118,2.261-13.385c1.507-3.268,3.976-5.771,7.407-7.51
				c3.432-1.738,7.375-2.608,11.833-2.608c5.451,0,9.948,1.048,13.492,3.145c3.543,2.097,6.028,4.876,7.455,8.339
				c1.427,3.462,2.141,8.33,2.141,14.604V110.863z M480.485,100.331v-4.729c0-3.349-0.177-5.511-0.529-6.485
				c-0.353-0.976-1.074-1.463-2.164-1.463c-1.347,0-2.182,0.414-2.501,1.243c-0.321,0.829-0.481,3.064-0.481,6.705v4.729H480.485z"
				/>
			<path d="M571.538,97.503h-20.25V83.782c0-3.99-0.216-6.479-0.649-7.47c-0.433-0.988-1.387-1.483-2.861-1.483
				c-1.668,0-2.727,0.602-3.175,1.804c-0.449,1.203-0.674,3.804-0.674,7.802v36.669c0,3.836,0.225,6.339,0.674,7.51
				c0.448,1.17,1.459,1.755,3.03,1.755c1.507,0,2.493-0.586,2.958-1.759c0.465-1.174,0.697-3.927,0.697-8.262v-9.923h20.25v3.076
				c0,8.172-0.569,13.967-1.707,17.385c-1.139,3.419-3.655,6.414-7.552,8.986c-3.896,2.571-8.698,3.857-14.406,3.857
				c-5.933,0-10.822-1.09-14.67-3.268c-3.849-2.178-6.397-5.193-7.648-9.045c-1.25-3.853-1.876-9.646-1.876-17.384V90.969
				c0-5.688,0.192-9.955,0.577-12.8s1.531-5.583,3.439-8.217c1.907-2.633,4.553-4.705,7.937-6.217
				c3.383-1.512,7.271-2.268,11.664-2.268c5.965,0,10.887,1.169,14.767,3.507c3.88,2.337,6.43,5.251,7.648,8.741
				c1.218,3.489,1.827,8.919,1.827,16.288V97.503z"/>
		</g>
		<g>
			<path d="M212.511,175.956c0,1.855-0.776,3.362-2.327,4.522c-1.552,1.159-3.659,1.739-6.321,1.739
				c-1.539,0-2.88-0.138-4.024-0.411c-1.144-0.274-2.215-0.622-3.213-1.044v-4.517h0.524c0.99,0.802,2.098,1.417,3.326,1.848
				c1.227,0.43,2.406,0.645,3.538,0.645c0.291,0,0.674-0.025,1.148-0.075c0.474-0.051,0.861-0.135,1.161-0.253
				c0.366-0.152,0.667-0.342,0.905-0.569c0.237-0.229,0.355-0.565,0.355-1.013c0-0.413-0.173-0.77-0.518-1.068
				c-0.346-0.3-0.851-0.529-1.517-0.689c-0.699-0.169-1.437-0.327-2.215-0.475s-1.508-0.335-2.19-0.563
				c-1.564-0.514-2.689-1.212-3.375-2.093c-0.687-0.882-1.029-1.976-1.029-3.283c0-1.754,0.775-3.186,2.327-4.295
				c1.551-1.108,3.546-1.663,5.983-1.663c1.223,0,2.431,0.12,3.625,0.36s2.228,0.542,3.101,0.904v4.339h-0.512
				c-0.749-0.606-1.666-1.115-2.751-1.524c-1.085-0.408-2.194-0.613-3.326-0.613c-0.399,0-0.796,0.027-1.191,0.082
				c-0.396,0.056-0.776,0.158-1.142,0.311c-0.324,0.126-0.603,0.318-0.836,0.575c-0.233,0.258-0.35,0.551-0.35,0.879
				c0,0.498,0.188,0.88,0.562,1.146c0.375,0.266,1.082,0.508,2.122,0.728c0.682,0.144,1.337,0.282,1.965,0.417
				s1.304,0.32,2.028,0.557c1.423,0.473,2.473,1.115,3.151,1.93C212.172,173.601,212.511,174.657,212.511,175.956z"/>
			<path d="M220.173,165.646h-4.754v-3.453h4.754V165.646z M220.048,181.876h-4.504V167.67h4.504V181.876z"/>
			<path d="M236.458,177.372c0,1.468-0.649,2.65-1.947,3.549s-3.074,1.348-5.329,1.348c-1.248,0-2.379-0.118-3.394-0.354
				c-1.015-0.236-1.83-0.498-2.446-0.784v-3.745h0.412c0.225,0.16,0.485,0.336,0.78,0.525c0.295,0.189,0.713,0.395,1.254,0.613
				c0.466,0.194,0.994,0.36,1.585,0.5c0.59,0.139,1.223,0.209,1.896,0.209c0.882,0,1.535-0.1,1.959-0.298
				c0.424-0.198,0.636-0.491,0.636-0.879c0-0.346-0.125-0.597-0.375-0.753s-0.724-0.306-1.422-0.449
				c-0.333-0.075-0.784-0.158-1.354-0.246c-0.57-0.089-1.088-0.196-1.554-0.323c-1.273-0.337-2.217-0.862-2.833-1.574
				c-0.616-0.713-0.923-1.601-0.923-2.663c0-1.366,0.638-2.503,1.916-3.409c1.277-0.907,3.021-1.36,5.234-1.36
				c1.048,0,2.053,0.107,3.014,0.322c0.961,0.216,1.712,0.445,2.252,0.689v3.593h-0.387c-0.666-0.464-1.425-0.841-2.277-1.132
				c-0.853-0.291-1.716-0.437-2.589-0.437c-0.724,0-1.333,0.102-1.828,0.304c-0.495,0.202-0.743,0.489-0.743,0.86
				c0,0.337,0.112,0.595,0.337,0.771s0.753,0.354,1.585,0.531c0.458,0.093,0.95,0.184,1.479,0.272
				c0.528,0.088,1.058,0.2,1.591,0.335c1.181,0.312,2.055,0.803,2.621,1.474C236.175,175.532,236.458,176.369,236.458,177.372z"/>
			<path d="M248.4,181.751c-0.482,0.126-0.994,0.225-1.535,0.296c-0.541,0.071-1.203,0.107-1.984,0.107
				c-1.747,0-3.047-0.358-3.899-1.075c-0.853-0.717-1.279-1.944-1.279-3.682v-6.642h-1.847v-3.086h1.847v-4.062h4.505v4.062h4.193
				v3.086h-4.193v5.043c0,0.498,0.004,0.934,0.013,1.305c0.008,0.372,0.075,0.705,0.199,1.001c0.116,0.296,0.321,0.53,0.616,0.703
				c0.294,0.174,0.724,0.26,1.288,0.26c0.232,0,0.537-0.051,0.914-0.151c0.377-0.102,0.641-0.194,0.791-0.278h0.373V181.751z"/>
			<path d="M264.884,175.614h-10.283c0.067,1.113,0.485,1.965,1.254,2.555c0.77,0.591,1.903,0.886,3.4,0.886
				c0.948,0,1.868-0.173,2.758-0.519s1.593-0.717,2.109-1.113h0.499v3.656c-1.015,0.413-1.972,0.713-2.87,0.898
				c-0.898,0.185-1.893,0.278-2.982,0.278c-2.812,0-4.966-0.642-6.464-1.923c-1.498-1.282-2.246-3.108-2.246-5.478
				c0-2.345,0.709-4.202,2.127-5.573c1.418-1.37,3.363-2.056,5.834-2.056c2.279,0,3.993,0.584,5.141,1.752
				c1.148,1.169,1.722,2.849,1.722,5.042V175.614z M260.417,172.944c-0.025-0.952-0.258-1.669-0.699-2.15
				c-0.441-0.48-1.127-0.721-2.059-0.721c-0.865,0-1.577,0.228-2.134,0.683c-0.558,0.456-0.87,1.186-0.936,2.188H260.417z"/>
			<path d="M281.743,171.807v10.069h-4.505v-7.097c0-0.691-0.017-1.28-0.05-1.765c-0.033-0.485-0.125-0.88-0.274-1.184
				c-0.15-0.303-0.376-0.524-0.68-0.664c-0.304-0.139-0.73-0.208-1.279-0.208c-0.441,0-0.869,0.091-1.285,0.271
				c-0.416,0.182-0.791,0.373-1.123,0.576v10.069h-4.505V167.67h4.505v1.568c0.772-0.615,1.512-1.097,2.218-1.442
				c0.707-0.346,1.487-0.519,2.343-0.519c0.922,0,1.736,0.209,2.443,0.626c0.706,0.418,1.258,1.031,1.657,1.841
				c0.897-0.768,1.77-1.37,2.617-1.809c0.848-0.438,1.678-0.658,2.492-0.658c1.512,0,2.661,0.46,3.445,1.379
				c0.785,0.919,1.178,2.243,1.178,3.973v9.247h-4.505v-7.097c0-0.7-0.015-1.291-0.043-1.771c-0.029-0.48-0.119-0.873-0.269-1.177
				c-0.142-0.303-0.366-0.524-0.674-0.664c-0.308-0.139-0.74-0.208-1.298-0.208c-0.374,0-0.74,0.065-1.098,0.195
				C282.696,171.285,282.259,171.503,281.743,171.807z"/>
			<path d="M319.417,168.985c0,0.844-0.146,1.668-0.437,2.473c-0.292,0.806-0.707,1.482-1.248,2.03
				c-0.74,0.743-1.566,1.304-2.477,1.683c-0.911,0.38-2.044,0.569-3.4,0.569h-2.982v6.136h-4.792v-18.837h7.886
				c1.181,0,2.178,0.104,2.989,0.311s1.529,0.517,2.153,0.93c0.749,0.498,1.32,1.135,1.716,1.91
				C319.219,166.966,319.417,167.897,319.417,168.985z M314.462,169.094c0-0.53-0.142-0.987-0.424-1.37
				c-0.283-0.383-0.612-0.649-0.986-0.801c-0.499-0.202-0.986-0.313-1.46-0.335c-0.474-0.021-1.106-0.031-1.897-0.031h-0.824v5.629
				h1.373c0.815,0,1.487-0.05,2.015-0.151c0.528-0.101,0.971-0.303,1.329-0.605c0.308-0.27,0.53-0.592,0.667-0.966
				S314.462,169.632,314.462,169.094z"/>
			<path d="M336.362,175.614H326.08c0.067,1.113,0.485,1.965,1.254,2.555c0.77,0.591,1.903,0.886,3.4,0.886
				c0.948,0,1.868-0.173,2.758-0.519s1.593-0.717,2.109-1.113h0.498v3.656c-1.015,0.413-1.971,0.713-2.87,0.898
				c-0.898,0.185-1.893,0.278-2.982,0.278c-2.812,0-4.966-0.642-6.464-1.923c-1.498-1.282-2.246-3.108-2.246-5.478
				c0-2.345,0.709-4.202,2.127-5.573c1.418-1.37,3.363-2.056,5.834-2.056c2.279,0,3.993,0.584,5.141,1.752
				c1.148,1.169,1.722,2.849,1.722,5.042V175.614z M331.895,172.944c-0.025-0.952-0.258-1.669-0.699-2.15
				c-0.441-0.48-1.127-0.721-2.059-0.721c-0.865,0-1.577,0.228-2.134,0.683c-0.558,0.456-0.87,1.186-0.936,2.188H331.895z"/>
			<path d="M353.607,181.876h-4.504v-7.046c0-0.574-0.029-1.146-0.088-1.715s-0.158-0.988-0.299-1.259
				c-0.167-0.312-0.41-0.539-0.73-0.683s-0.768-0.215-1.342-0.215c-0.407,0-0.821,0.067-1.241,0.202
				c-0.421,0.135-0.876,0.35-1.366,0.646v10.069h-4.505V167.67h4.505v1.568c0.797-0.633,1.563-1.117,2.299-1.455
				c0.735-0.337,1.552-0.506,2.449-0.506c1.512,0,2.693,0.447,3.545,1.341c0.852,0.895,1.277,2.231,1.277,4.011V181.876z"/>
			<path d="M371.365,180.244c0,1.333-0.188,2.454-0.562,3.365c-0.374,0.91-0.898,1.623-1.572,2.138
				c-0.674,0.522-1.487,0.9-2.439,1.132c-0.953,0.232-2.028,0.349-3.226,0.349c-0.974,0-1.933-0.06-2.877-0.178
				s-1.762-0.262-2.452-0.43v-3.555h0.549c0.548,0.219,1.217,0.419,2.006,0.601s1.495,0.272,2.118,0.272
				c0.831,0,1.506-0.078,2.025-0.234c0.519-0.156,0.916-0.378,1.189-0.664c0.258-0.271,0.444-0.616,0.561-1.037
				c0.116-0.422,0.175-0.928,0.175-1.519v-0.266c-0.54,0.447-1.139,0.802-1.795,1.063c-0.656,0.262-1.387,0.393-2.193,0.393
				c-1.961,0-3.473-0.599-4.536-1.797c-1.063-1.197-1.596-3.019-1.596-5.465c0-1.172,0.162-2.184,0.486-3.036
				c0.324-0.852,0.78-1.594,1.371-2.227c0.548-0.59,1.223-1.05,2.024-1.379s1.623-0.493,2.462-0.493
				c0.756,0,1.443,0.091,2.063,0.272c0.619,0.181,1.182,0.432,1.689,0.752l0.162-0.632h4.367V180.244z M366.86,177.397v-6.438
				c-0.257-0.109-0.572-0.196-0.946-0.26c-0.373-0.063-0.71-0.095-1.008-0.095c-1.18,0-2.063,0.344-2.652,1.031
				c-0.59,0.688-0.884,1.646-0.884,2.878c0,1.366,0.251,2.319,0.753,2.858c0.502,0.54,1.247,0.81,2.235,0.81
				c0.447,0,0.888-0.071,1.319-0.215S366.504,177.634,366.86,177.397z"/>
			<path d="M389.409,175.614h-10.282c0.066,1.113,0.484,1.965,1.254,2.555c0.77,0.591,1.903,0.886,3.4,0.886
				c0.948,0,1.867-0.173,2.758-0.519c0.89-0.346,1.593-0.717,2.109-1.113h0.499v3.656c-1.016,0.413-1.972,0.713-2.87,0.898
				c-0.898,0.185-1.893,0.278-2.982,0.278c-2.813,0-4.967-0.642-6.464-1.923c-1.498-1.282-2.247-3.108-2.247-5.478
				c0-2.345,0.71-4.202,2.128-5.573c1.418-1.37,3.363-2.056,5.834-2.056c2.279,0,3.993,0.584,5.142,1.752
				c1.147,1.169,1.722,2.849,1.722,5.042V175.614z M384.941,172.944c-0.024-0.952-0.258-1.669-0.698-2.15
				c-0.441-0.48-1.128-0.721-2.06-0.721c-0.865,0-1.576,0.228-2.134,0.683c-0.557,0.456-0.869,1.186-0.936,2.188H384.941z"/>
			<path d="M397.084,181.876h-4.505v-19.684h4.505V181.876z"/>
			<path d="M415.64,174.779c0,2.336-0.672,4.177-2.016,5.521c-1.344,1.346-3.23,2.018-5.659,2.018s-4.315-0.672-5.659-2.018
				c-1.344-1.345-2.016-3.186-2.016-5.521c0-2.354,0.677-4.2,2.028-5.541s3.233-2.012,5.646-2.012c2.446,0,4.337,0.675,5.672,2.024
				S415.64,172.443,415.64,174.779z M410.111,178.232c0.291-0.362,0.51-0.799,0.655-1.31c0.146-0.51,0.218-1.216,0.218-2.118
				c0-0.835-0.074-1.535-0.225-2.101c-0.149-0.564-0.357-1.016-0.624-1.354c-0.266-0.346-0.586-0.59-0.96-0.733
				c-0.375-0.144-0.778-0.215-1.211-0.215s-0.817,0.059-1.154,0.177s-0.659,0.354-0.967,0.708c-0.274,0.329-0.493,0.78-0.655,1.354
				c-0.162,0.573-0.243,1.294-0.243,2.163c0,0.775,0.07,1.448,0.212,2.018s0.35,1.026,0.624,1.372
				c0.266,0.329,0.584,0.569,0.954,0.722c0.37,0.151,0.793,0.228,1.267,0.228c0.408,0,0.797-0.069,1.167-0.209
				C409.539,178.796,409.854,178.562,410.111,178.232z"/>
			<path d="M423.364,181.876h-4.505v-19.684h4.505V181.876z"/>
			<path d="M436.079,180.37c-0.241,0.187-0.54,0.409-0.898,0.671c-0.357,0.262-0.694,0.468-1.011,0.62
				c-0.44,0.202-0.898,0.352-1.372,0.449c-0.475,0.097-0.994,0.146-1.56,0.146c-1.332,0-2.446-0.418-3.345-1.253
				s-1.348-1.901-1.348-3.2c0-1.037,0.229-1.885,0.687-2.543c0.457-0.658,1.106-1.177,1.946-1.556
				c0.832-0.38,1.863-0.649,3.095-0.81s2.509-0.278,3.831-0.354v-0.076c0-0.784-0.316-1.326-0.948-1.625
				c-0.633-0.3-1.564-0.449-2.795-0.449c-0.741,0-1.531,0.133-2.371,0.398c-0.841,0.266-1.443,0.47-1.81,0.613h-0.412v-3.428
				c0.475-0.127,1.246-0.276,2.315-0.449c1.068-0.173,2.14-0.26,3.213-0.26c2.554,0,4.398,0.398,5.534,1.195
				s1.703,2.048,1.703,3.751v9.665h-4.455V180.37z M436.079,178.16v-2.951c-0.606,0.051-1.265,0.12-1.971,0.208
				c-0.708,0.089-1.244,0.191-1.61,0.31c-0.449,0.143-0.792,0.351-1.029,0.624s-0.355,0.633-0.355,1.078
				c0,0.294,0.024,0.534,0.074,0.719c0.051,0.185,0.175,0.361,0.375,0.529c0.191,0.168,0.42,0.292,0.687,0.372
				c0.266,0.08,0.682,0.12,1.247,0.12c0.449,0,0.905-0.093,1.367-0.277C435.324,178.706,435.73,178.463,436.079,178.16z"/>
			<path d="M453.15,180.37c-0.241,0.187-0.54,0.409-0.898,0.671c-0.357,0.262-0.694,0.468-1.011,0.62
				c-0.44,0.202-0.898,0.352-1.372,0.449c-0.475,0.097-0.994,0.146-1.56,0.146c-1.332,0-2.446-0.418-3.345-1.253
				s-1.348-1.901-1.348-3.2c0-1.037,0.229-1.885,0.687-2.543c0.457-0.658,1.106-1.177,1.946-1.556
				c0.832-0.38,1.863-0.649,3.095-0.81s2.509-0.278,3.831-0.354v-0.076c0-0.784-0.316-1.326-0.948-1.625
				c-0.633-0.3-1.564-0.449-2.795-0.449c-0.741,0-1.531,0.133-2.371,0.398c-0.841,0.266-1.443,0.47-1.81,0.613h-0.412v-3.428
				c0.475-0.127,1.246-0.276,2.315-0.449c1.068-0.173,2.14-0.26,3.213-0.26c2.554,0,4.398,0.398,5.534,1.195
				s1.703,2.048,1.703,3.751v9.665h-4.455V180.37z M453.15,178.16v-2.951c-0.606,0.051-1.265,0.12-1.971,0.208
				c-0.708,0.089-1.244,0.191-1.61,0.31c-0.449,0.143-0.792,0.351-1.029,0.624s-0.355,0.633-0.355,1.078
				c0,0.294,0.024,0.534,0.074,0.719c0.051,0.185,0.175,0.361,0.375,0.529c0.191,0.168,0.42,0.292,0.687,0.372
				c0.266,0.08,0.682,0.12,1.247,0.12c0.449,0,0.905-0.093,1.367-0.277C452.396,178.706,452.802,178.463,453.15,178.16z"/>
			<path d="M475.812,181.876h-4.505v-7.046c0-0.574-0.029-1.146-0.087-1.715c-0.059-0.569-0.158-0.988-0.3-1.259
				c-0.166-0.312-0.41-0.539-0.729-0.683c-0.321-0.144-0.768-0.215-1.342-0.215c-0.408,0-0.821,0.067-1.242,0.202
				c-0.42,0.135-0.875,0.35-1.366,0.646v10.069h-4.505V167.67h4.505v1.568c0.798-0.633,1.564-1.117,2.3-1.455
				c0.735-0.337,1.552-0.506,2.448-0.506c1.513,0,2.694,0.447,3.546,1.341c0.852,0.895,1.277,2.231,1.277,4.011V181.876z"/>
			<path d="M502.33,181.876h-13.402v-18.837h4.792v15.193h8.61V181.876z"/>
			<path d="M518.764,175.614h-10.282c0.066,1.113,0.484,1.965,1.254,2.555c0.77,0.591,1.903,0.886,3.4,0.886
				c0.948,0,1.867-0.173,2.758-0.519c0.89-0.346,1.593-0.717,2.109-1.113h0.499v3.656c-1.016,0.413-1.972,0.713-2.87,0.898
				c-0.898,0.185-1.893,0.278-2.982,0.278c-2.813,0-4.967-0.642-6.464-1.923c-1.498-1.282-2.247-3.108-2.247-5.478
				c0-2.345,0.71-4.202,2.128-5.573c1.418-1.37,3.363-2.056,5.834-2.056c2.279,0,3.993,0.584,5.142,1.752
				c1.147,1.169,1.722,2.849,1.722,5.042V175.614z M514.296,172.944c-0.024-0.952-0.258-1.669-0.698-2.15
				c-0.441-0.48-1.128-0.721-2.06-0.721c-0.865,0-1.576,0.228-2.134,0.683c-0.557,0.456-0.869,1.186-0.936,2.188H514.296z"/>
			<path d="M530.894,181.751c-0.482,0.126-0.994,0.225-1.535,0.296s-1.202,0.107-1.983,0.107c-1.747,0-3.047-0.358-3.9-1.075
				c-0.853-0.717-1.278-1.944-1.278-3.682v-6.642h-1.848v-3.086h1.848v-4.062h4.505v4.062h4.192v3.086h-4.192v5.043
				c0,0.498,0.004,0.934,0.012,1.305c0.009,0.372,0.075,0.705,0.199,1.001c0.116,0.296,0.321,0.53,0.616,0.703
				c0.294,0.174,0.724,0.26,1.287,0.26c0.232,0,0.537-0.051,0.915-0.151c0.377-0.102,0.641-0.194,0.79-0.278h0.373V181.751z"/>
			<path d="M542.536,181.751c-0.482,0.126-0.994,0.225-1.535,0.296s-1.202,0.107-1.983,0.107c-1.747,0-3.047-0.358-3.9-1.075
				c-0.853-0.717-1.278-1.944-1.278-3.682v-6.642h-1.848v-3.086h1.848v-4.062h4.505v4.062h4.192v3.086h-4.192v5.043
				c0,0.498,0.004,0.934,0.012,1.305c0.009,0.372,0.075,0.705,0.199,1.001c0.116,0.296,0.321,0.53,0.616,0.703
				c0.294,0.174,0.724,0.26,1.287,0.26c0.232,0,0.537-0.051,0.915-0.151c0.377-0.102,0.641-0.194,0.79-0.278h0.373V181.751z"/>
			<path d="M559.021,175.614h-10.282c0.066,1.113,0.484,1.965,1.254,2.555c0.77,0.591,1.903,0.886,3.4,0.886
				c0.948,0,1.867-0.173,2.758-0.519c0.89-0.346,1.593-0.717,2.109-1.113h0.499v3.656c-1.016,0.413-1.972,0.713-2.87,0.898
				c-0.898,0.185-1.893,0.278-2.982,0.278c-2.813,0-4.967-0.642-6.464-1.923c-1.498-1.282-2.247-3.108-2.247-5.478
				c0-2.345,0.71-4.202,2.128-5.573c1.418-1.37,3.363-2.056,5.834-2.056c2.279,0,3.993,0.584,5.142,1.752
				c1.147,1.169,1.722,2.849,1.722,5.042V175.614z M554.553,172.944c-0.024-0.952-0.258-1.669-0.698-2.15
				c-0.441-0.48-1.128-0.721-2.06-0.721c-0.865,0-1.576,0.228-2.134,0.683c-0.557,0.456-0.869,1.186-0.936,2.188H554.553z"/>
			<path d="M572.348,172.009h-0.398c-0.191-0.067-0.498-0.118-0.922-0.152c-0.423-0.033-0.776-0.05-1.058-0.05
				c-0.64,0-1.204,0.042-1.694,0.126c-0.489,0.085-1.017,0.228-1.581,0.431v9.513h-4.505V167.67h4.505v2.087
				c0.988-0.86,1.847-1.432,2.577-1.714s1.403-0.424,2.018-0.424c0.157,0,0.336,0.004,0.535,0.013
				c0.199,0.008,0.374,0.021,0.523,0.038V172.009z"/>
			<path d="M592.276,182.243c-1.382,0-2.656-0.207-3.825-0.62s-2.174-1.029-3.014-1.847c-0.84-0.818-1.491-1.839-1.953-3.062
				c-0.461-1.223-0.692-2.636-0.692-4.238c0-1.492,0.221-2.847,0.661-4.061c0.441-1.215,1.082-2.256,1.922-3.125
				c0.807-0.835,1.808-1.479,3.001-1.936c1.194-0.455,2.498-0.683,3.912-0.683c0.782,0,1.487,0.044,2.115,0.133
				c0.628,0.088,1.209,0.204,1.741,0.348c0.557,0.16,1.063,0.34,1.516,0.538c0.454,0.198,0.851,0.381,1.192,0.55v4.566h-0.55
				c-0.232-0.201-0.525-0.439-0.879-0.717c-0.354-0.277-0.755-0.55-1.204-0.818c-0.458-0.269-0.953-0.495-1.485-0.68
				s-1.103-0.276-1.71-0.276c-0.674,0-1.314,0.106-1.922,0.321c-0.606,0.215-1.169,0.57-1.685,1.067
				c-0.49,0.479-0.888,1.115-1.191,1.906s-0.455,1.75-0.455,2.878c0,1.179,0.164,2.163,0.492,2.954
				c0.329,0.791,0.743,1.414,1.242,1.868c0.507,0.463,1.073,0.794,1.697,0.991c0.624,0.198,1.239,0.297,1.847,0.297
				c0.582,0,1.158-0.088,1.729-0.265c0.569-0.176,1.096-0.415,1.578-0.717c0.407-0.243,0.786-0.504,1.136-0.78
				c0.35-0.277,0.637-0.517,0.861-0.718h0.499v4.504c-0.466,0.211-0.911,0.409-1.336,0.594c-0.424,0.186-0.869,0.347-1.335,0.481
				c-0.607,0.177-1.177,0.312-1.709,0.404C593.939,182.196,593.208,182.243,592.276,182.243z"/>
		</g>
	</g>
</g>
</svg>
