<?xml version="1.0" encoding="utf-8"?>
<!-- Generator: Adobe Illustrator 16.0.0, SVG Export Plug-In . SVG Version: 6.00 Build 0)  -->
<!DOCTYPE svg PUBLIC "-//W3C//DTD SVG 1.1//EN" "http://www.w3.org/Graphics/SVG/1.1/DTD/svg11.dtd">
<svg version="1.1" id="Layer_1" xmlns="http://www.w3.org/2000/svg" xmlns:xlink="http://www.w3.org/1999/xlink" x="0px" y="0px"
	 width="600px" height="200px" viewBox="0 0 600 200" enable-background="new 0 0 600 200" xml:space="preserve" >
<g>
	<g>
		<g>
			<path fill="#F9ED32" d="M98.642,12.945c15.811,16.027,15.811,42.014,0,58.039l-57.243,58.034
				c-15.812-16.031-15.812-42.004,0-58.034L98.642,12.945z"/>
			<path fill="#FBB040" d="M41.398,129.018c15.821,16.027,41.445,16.027,57.243,0l57.244-58.033
				c-15.811-16.025-41.435-16.025-57.244,0L41.398,129.018z"/>
			<path fill="#F7941E" d="M155.886,70.984c15.822,16.029,15.822,42.002,0,58.034l-57.244,58.037
				c-15.798-16.033-15.798-42.011,0-58.037L155.886,70.984z"/>
		</g>
		<path fill="#FFF200" d="M98.642,12.504c47.587,0,86.313,39.25,86.313,87.496c0,48.248-38.726,87.5-86.313,87.5
			c-47.586,0-86.312-39.252-86.312-87.5C12.33,51.754,51.056,12.504,98.642,12.504 M98.642,0C44.167,0,0,44.775,0,100
			c0,55.225,44.167,100,98.642,100c54.477,0,98.643-44.775,98.643-100C197.284,44.775,153.117,0,98.642,0L98.642,0z"/>
	</g>
	<g>
		<g>
			<path fill="#FCFCFC" d="M267.451,87.02h-18.808v-5.852c0-2.73-0.241-4.47-0.722-5.218c-0.481-0.747-1.283-1.121-2.405-1.121
				c-1.219,0-2.141,0.504-2.766,1.513c-0.625,1.009-0.938,2.537-0.938,4.587c0,2.635,0.352,4.619,1.056,5.952
				c0.671,1.334,2.578,2.943,5.722,4.827c9.015,5.424,14.691,9.875,17.033,13.353c2.34,3.479,3.511,9.088,3.511,16.823
				c0,5.624-0.649,9.771-1.948,12.435c-1.299,2.666-3.808,4.9-7.528,6.705c-3.72,1.805-8.049,2.707-12.986,2.707
				c-5.419,0-10.045-1.041-13.877-3.121s-6.342-4.729-7.528-7.948c-1.187-3.218-1.779-7.785-1.779-13.702v-5.169h18.808v9.606
				c0,2.957,0.264,4.859,0.793,5.705c0.528,0.846,1.467,1.268,2.813,1.268c1.348,0,2.35-0.536,3.006-1.608
				c0.657-1.073,0.986-2.666,0.986-4.778c0-4.648-0.625-7.688-1.876-9.118c-1.283-1.431-4.442-3.819-9.476-7.169
				c-5.035-3.381-8.37-5.834-10.005-7.362c-1.636-1.527-2.991-3.641-4.064-6.339c-1.075-2.698-1.611-6.145-1.611-10.338
				c0-6.046,0.762-10.467,2.285-13.263s3.984-4.981,7.383-6.559c3.398-1.576,7.504-2.365,12.313-2.365
				c5.259,0,9.741,0.862,13.444,2.585c3.702,1.723,6.156,3.893,7.358,6.509c1.202,2.617,1.804,7.063,1.804,13.337v3.12H267.451z"/>
			<path fill="#FCFCFC" d="M294.916,63.126v10.289h-20.01V63.126H294.916z M294.916,77.364v64.706h-20.01V77.364H294.916z"/>
			<path fill="#FCFCFC" d="M321.081,77.364l-0.337,6.156c1.508-2.442,3.303-4.273,5.388-5.495c2.084-1.221,4.457-1.831,7.118-1.831
				c5.194,0,9.284,2.442,12.267,7.326c1.636-2.442,3.479-4.273,5.532-5.495c2.051-1.221,4.328-1.831,6.829-1.831
				c3.303,0,6.036,0.813,8.2,2.438c2.165,1.626,3.553,3.617,4.161,5.974s0.914,6.186,0.914,11.483v45.981h-18.854V99.893
				c0-5.526-0.187-8.948-0.554-10.265c-0.368-1.316-1.227-1.975-2.573-1.975c-1.379,0-2.27,0.65-2.669,1.95
				c-0.401,1.301-0.603,4.729-0.603,10.289v42.178h-18.854v-41.105c0-6.339-0.153-10.143-0.457-11.41
				c-0.306-1.268-1.147-1.901-2.525-1.901c-0.866,0-1.604,0.333-2.212,0.999c-0.609,0.667-0.946,1.479-1.01,2.438
				c-0.064,0.959-0.097,2.999-0.097,6.119v44.86H301.89V77.364H321.081z"/>
			<path fill="#FCFCFC" d="M397.609,77.364l-0.337,5.718c1.731-2.313,3.64-4.038,5.724-5.179c2.084-1.14,4.361-1.709,6.831-1.709
				c3.015,0,5.619,0.821,7.815,2.462c2.196,1.643,3.567,3.535,4.113,5.681c0.545,2.146,0.816,5.787,0.816,10.923v27.258
				c0,5.885-0.345,10.069-1.034,12.558c-0.689,2.485-2.101,4.47-4.231,5.948c-2.134,1.479-4.707,2.219-7.721,2.219
				c-2.404,0-4.635-0.569-6.687-1.709c-2.053-1.141-3.929-2.833-5.628-5.081v14.836H377.84V77.364H397.609z M403.141,96.187
				c0-3.999-0.146-6.42-0.434-7.266c-0.288-0.845-1.091-1.268-2.404-1.268c-1.283,0-2.108,0.487-2.478,1.463
				c-0.369,0.975-0.554,3.332-0.554,7.07v26.819c0,3.9,0.192,6.339,0.577,7.313c0.385,0.976,1.219,1.463,2.501,1.463
				c1.251,0,2.028-0.446,2.333-1.342c0.305-0.894,0.457-3.063,0.457-6.51L403.141,96.187L403.141,96.187z"/>
			<path fill="#FCFCFC" d="M448.979,63.126v78.944h-20.01V63.126H448.979z"/>
			<path fill="#FCFCFC" d="M499.966,110.863H474.81v13.994c0,2.927,0.208,4.813,0.625,5.656c0.417,0.846,1.219,1.269,2.405,1.269
				c1.475,0,2.461-0.562,2.958-1.683s0.746-3.291,0.746-6.51v-8.533h18.422v4.778c0,3.998-0.249,7.07-0.745,9.216
				c-0.498,2.146-1.66,4.438-3.487,6.876c-1.828,2.438-4.146,4.267-6.951,5.485c-2.805,1.218-6.323,1.828-10.558,1.828
				c-4.104,0-7.729-0.602-10.87-1.805c-3.144-1.201-5.588-2.853-7.336-4.949c-1.748-2.096-2.958-4.404-3.631-6.924
				c-0.674-2.52-1.011-6.185-1.011-10.996V99.697c0-5.656,0.753-10.118,2.261-13.385c1.507-3.268,3.976-5.771,7.407-7.51
				c3.432-1.738,7.375-2.608,11.833-2.608c5.45,0,9.947,1.048,13.491,3.145c3.543,2.097,6.028,4.876,7.455,8.339
				c1.428,3.462,2.142,8.33,2.142,14.604V110.863z M480.485,100.331v-4.729c0-3.349-0.177-5.511-0.529-6.485
				c-0.353-0.976-1.073-1.463-2.164-1.463c-1.347,0-2.182,0.414-2.501,1.243c-0.32,0.829-0.48,3.064-0.48,6.705v4.729H480.485z"/>
			<path fill="#FCFCFC" d="M571.537,97.503h-20.25V83.782c0-3.99-0.216-6.479-0.648-7.47c-0.434-0.988-1.387-1.483-2.861-1.483
				c-1.668,0-2.727,0.602-3.175,1.804c-0.449,1.203-0.674,3.804-0.674,7.802v36.668c0,3.836,0.225,6.34,0.674,7.511
				c0.448,1.17,1.459,1.755,3.03,1.755c1.507,0,2.493-0.586,2.958-1.76s0.696-3.926,0.696-8.262v-9.923h20.25v3.076
				c0,8.172-0.568,13.967-1.706,17.385c-1.14,3.419-3.655,6.414-7.553,8.986c-3.896,2.571-8.697,3.856-14.405,3.856
				c-5.934,0-10.822-1.09-14.67-3.268c-3.85-2.178-6.397-5.193-7.648-9.045c-1.25-3.854-1.876-9.646-1.876-17.384V90.969
				c0-5.688,0.192-9.955,0.577-12.8c0.385-2.845,1.531-5.583,3.438-8.217c1.907-2.633,4.554-4.705,7.938-6.217
				c3.383-1.512,7.271-2.268,11.664-2.268c5.965,0,10.887,1.169,14.767,3.507c3.88,2.337,6.431,5.251,7.648,8.741
				c1.218,3.489,1.827,8.919,1.827,16.288L571.537,97.503L571.537,97.503z"/>
		</g>
		<g>
			<path fill="#FCFCFC" d="M212.511,175.956c0,1.854-0.776,3.362-2.327,4.522c-1.552,1.158-3.659,1.738-6.321,1.738
				c-1.538,0-2.88-0.138-4.023-0.41c-1.145-0.274-2.215-0.623-3.213-1.045v-4.517h0.523c0.99,0.802,2.099,1.417,3.326,1.848
				s2.406,0.646,3.538,0.646c0.291,0,0.674-0.025,1.148-0.075c0.474-0.052,0.86-0.136,1.16-0.253
				c0.366-0.152,0.668-0.342,0.905-0.569c0.237-0.229,0.355-0.565,0.355-1.013c0-0.413-0.173-0.77-0.519-1.068
				c-0.346-0.3-0.851-0.529-1.517-0.689c-0.699-0.168-1.438-0.326-2.215-0.475c-0.778-0.147-1.508-0.335-2.19-0.563
				c-1.563-0.514-2.688-1.213-3.375-2.094s-1.029-1.976-1.029-3.282c0-1.755,0.775-3.187,2.327-4.296
				c1.552-1.107,3.546-1.662,5.983-1.662c1.223,0,2.431,0.119,3.625,0.359s2.228,0.543,3.101,0.904v4.339h-0.512
				c-0.749-0.606-1.666-1.114-2.751-1.524c-1.085-0.407-2.194-0.612-3.326-0.612c-0.398,0-0.796,0.026-1.19,0.082
				c-0.396,0.056-0.776,0.158-1.143,0.312c-0.324,0.125-0.603,0.317-0.836,0.574c-0.232,0.258-0.35,0.551-0.35,0.879
				c0,0.498,0.188,0.881,0.562,1.146c0.375,0.266,1.082,0.508,2.122,0.728c0.683,0.144,1.337,0.282,1.965,0.417
				s1.305,0.32,2.028,0.557c1.423,0.474,2.473,1.115,3.151,1.931C212.172,173.602,212.511,174.657,212.511,175.956z"/>
			<path fill="#FCFCFC" d="M220.173,165.646h-4.754v-3.453h4.754V165.646z M220.048,181.876h-4.504V167.67h4.504V181.876z"/>
			<path fill="#FCFCFC" d="M236.458,177.372c0,1.468-0.649,2.649-1.947,3.549s-3.074,1.349-5.329,1.349
				c-1.248,0-2.379-0.119-3.394-0.354c-1.016-0.235-1.83-0.498-2.446-0.784v-3.745h0.412c0.225,0.16,0.484,0.337,0.78,0.525
				c0.295,0.188,0.713,0.396,1.254,0.612c0.466,0.194,0.994,0.36,1.585,0.5c0.59,0.14,1.223,0.209,1.896,0.209
				c0.882,0,1.535-0.1,1.959-0.297c0.424-0.199,0.636-0.492,0.636-0.879c0-0.347-0.125-0.598-0.375-0.754s-0.724-0.306-1.422-0.449
				c-0.333-0.074-0.783-0.158-1.354-0.246s-1.088-0.195-1.554-0.322c-1.273-0.337-2.218-0.862-2.833-1.574
				c-0.616-0.713-0.924-1.602-0.924-2.663c0-1.366,0.639-2.503,1.916-3.409s3.021-1.359,5.234-1.359
				c1.048,0,2.053,0.106,3.014,0.322c0.961,0.215,1.712,0.444,2.252,0.688v3.593h-0.387c-0.666-0.464-1.425-0.841-2.277-1.132
				s-1.716-0.437-2.589-0.437c-0.724,0-1.333,0.102-1.828,0.304c-0.494,0.202-0.742,0.489-0.742,0.86
				c0,0.336,0.111,0.595,0.337,0.771c0.225,0.176,0.753,0.354,1.585,0.53c0.458,0.094,0.95,0.185,1.479,0.272
				c0.528,0.089,1.059,0.2,1.591,0.335c1.182,0.313,2.056,0.803,2.621,1.475C236.175,175.532,236.458,176.369,236.458,177.372z"/>
			<path fill="#FCFCFC" d="M248.4,181.751c-0.481,0.126-0.994,0.226-1.535,0.296c-0.54,0.071-1.202,0.107-1.983,0.107
				c-1.747,0-3.047-0.358-3.899-1.075c-0.853-0.718-1.278-1.944-1.278-3.683v-6.642h-1.848v-3.086h1.848v-4.062h4.505v4.062h4.192
				v3.086h-4.192v5.043c0,0.498,0.004,0.935,0.013,1.306c0.008,0.371,0.075,0.705,0.199,1c0.116,0.297,0.321,0.53,0.616,0.703
				c0.294,0.174,0.724,0.26,1.288,0.26c0.231,0,0.536-0.051,0.913-0.15c0.377-0.102,0.642-0.193,0.791-0.277h0.373v3.112H248.4z"/>
			<path fill="#FCFCFC" d="M264.884,175.614h-10.283c0.067,1.112,0.485,1.965,1.254,2.555c0.771,0.591,1.903,0.886,3.4,0.886
				c0.948,0,1.868-0.173,2.758-0.519c0.89-0.347,1.593-0.718,2.109-1.113h0.499v3.656c-1.016,0.413-1.973,0.713-2.87,0.897
				c-0.898,0.186-1.894,0.278-2.982,0.278c-2.812,0-4.966-0.642-6.464-1.923c-1.498-1.282-2.246-3.107-2.246-5.479
				c0-2.345,0.709-4.201,2.127-5.572c1.418-1.37,3.363-2.057,5.834-2.057c2.279,0,3.993,0.584,5.142,1.752
				c1.147,1.17,1.722,2.85,1.722,5.043L264.884,175.614L264.884,175.614z M260.417,172.943c-0.025-0.951-0.258-1.668-0.699-2.149
				c-0.441-0.479-1.127-0.721-2.059-0.721c-0.865,0-1.577,0.228-2.135,0.683c-0.558,0.456-0.87,1.186-0.936,2.188H260.417
				L260.417,172.943z"/>
			<path fill="#FCFCFC" d="M281.743,171.807v10.069h-4.506v-7.097c0-0.691-0.017-1.28-0.05-1.766
				c-0.033-0.484-0.125-0.88-0.273-1.184c-0.15-0.303-0.376-0.523-0.681-0.664c-0.304-0.139-0.729-0.208-1.278-0.208
				c-0.441,0-0.869,0.091-1.285,0.271c-0.416,0.183-0.791,0.373-1.123,0.576v10.069h-4.505V167.67h4.505v1.568
				c0.771-0.615,1.512-1.098,2.218-1.442c0.707-0.346,1.487-0.519,2.343-0.519c0.922,0,1.736,0.209,2.443,0.625
				c0.706,0.418,1.258,1.031,1.657,1.842c0.896-0.768,1.77-1.37,2.617-1.809s1.678-0.658,2.491-0.658
				c1.513,0,2.661,0.459,3.445,1.379c0.785,0.919,1.178,2.242,1.178,3.973v9.247h-4.505v-7.097c0-0.7-0.015-1.291-0.043-1.771
				s-0.119-0.873-0.269-1.177c-0.143-0.304-0.366-0.524-0.674-0.664c-0.309-0.14-0.74-0.208-1.299-0.208
				c-0.374,0-0.739,0.064-1.098,0.195C282.696,171.285,282.259,171.503,281.743,171.807z"/>
			<path fill="#FCFCFC" d="M319.416,168.984c0,0.845-0.146,1.668-0.437,2.474c-0.292,0.806-0.707,1.481-1.248,2.03
				c-0.74,0.742-1.566,1.304-2.477,1.683c-0.911,0.38-2.044,0.569-3.4,0.569h-2.982v6.136h-4.792v-18.837h7.887
				c1.181,0,2.178,0.104,2.988,0.311c0.812,0.207,1.529,0.518,2.153,0.93c0.749,0.498,1.32,1.136,1.716,1.91
				C319.219,166.966,319.416,167.896,319.416,168.984z M314.462,169.094c0-0.529-0.143-0.986-0.425-1.369
				c-0.282-0.384-0.611-0.649-0.985-0.802c-0.499-0.202-0.986-0.313-1.46-0.335c-0.475-0.021-1.106-0.031-1.897-0.031h-0.824v5.629
				h1.373c0.815,0,1.487-0.05,2.016-0.15c0.527-0.102,0.971-0.303,1.329-0.605c0.308-0.27,0.529-0.592,0.667-0.966
				C314.392,170.09,314.462,169.632,314.462,169.094z"/>
			<path fill="#FCFCFC" d="M336.362,175.614h-10.282c0.067,1.112,0.485,1.965,1.255,2.555c0.77,0.591,1.902,0.886,3.399,0.886
				c0.948,0,1.868-0.173,2.758-0.519c0.891-0.347,1.593-0.718,2.109-1.113h0.498v3.656c-1.016,0.413-1.971,0.713-2.87,0.897
				c-0.898,0.186-1.893,0.278-2.982,0.278c-2.812,0-4.966-0.642-6.464-1.923c-1.498-1.282-2.246-3.107-2.246-5.479
				c0-2.345,0.709-4.201,2.127-5.572c1.418-1.37,3.363-2.057,5.834-2.057c2.279,0,3.993,0.584,5.142,1.752
				c1.147,1.17,1.722,2.85,1.722,5.043L336.362,175.614L336.362,175.614z M331.895,172.943c-0.025-0.951-0.258-1.668-0.699-2.149
				c-0.44-0.479-1.127-0.721-2.059-0.721c-0.865,0-1.577,0.228-2.134,0.683c-0.559,0.456-0.87,1.186-0.937,2.188H331.895
				L331.895,172.943z"/>
			<path fill="#FCFCFC" d="M353.607,181.876h-4.504v-7.046c0-0.574-0.029-1.146-0.088-1.715c-0.06-0.569-0.158-0.988-0.299-1.26
				c-0.167-0.312-0.41-0.539-0.73-0.683s-0.768-0.215-1.342-0.215c-0.407,0-0.821,0.067-1.241,0.202
				c-0.421,0.135-0.876,0.35-1.366,0.646v10.068h-4.505V167.67h4.505v1.568c0.797-0.633,1.563-1.117,2.3-1.455
				c0.734-0.338,1.552-0.506,2.448-0.506c1.513,0,2.693,0.447,3.545,1.341c0.853,0.896,1.277,2.231,1.277,4.011V181.876z"/>
			<path fill="#FCFCFC" d="M371.365,180.244c0,1.333-0.188,2.454-0.562,3.365c-0.374,0.91-0.898,1.623-1.572,2.138
				c-0.674,0.522-1.487,0.899-2.439,1.132s-2.027,0.35-3.226,0.35c-0.974,0-1.933-0.061-2.877-0.179s-1.762-0.262-2.452-0.43v-3.556
				h0.549c0.549,0.22,1.218,0.42,2.006,0.602c0.789,0.182,1.495,0.271,2.118,0.271c0.831,0,1.507-0.078,2.025-0.233
				c0.519-0.156,0.916-0.378,1.188-0.664c0.259-0.271,0.444-0.616,0.562-1.037c0.116-0.422,0.175-0.928,0.175-1.519v-0.267
				c-0.54,0.447-1.139,0.802-1.795,1.063s-1.387,0.393-2.193,0.393c-1.961,0-3.473-0.599-4.535-1.797
				c-1.063-1.197-1.597-3.02-1.597-5.465c0-1.172,0.162-2.184,0.486-3.036s0.78-1.594,1.371-2.228
				c0.548-0.59,1.223-1.049,2.023-1.379c0.802-0.328,1.623-0.492,2.462-0.492c0.757,0,1.443,0.091,2.063,0.271
				c0.619,0.182,1.182,0.432,1.688,0.752l0.162-0.632h4.367L371.365,180.244L371.365,180.244z M366.86,177.396v-6.438
				c-0.257-0.109-0.572-0.195-0.946-0.26c-0.373-0.063-0.71-0.096-1.008-0.096c-1.18,0-2.063,0.345-2.651,1.031
				c-0.591,0.688-0.885,1.646-0.885,2.879c0,1.365,0.251,2.318,0.753,2.857c0.502,0.54,1.247,0.811,2.235,0.811
				c0.447,0,0.888-0.072,1.319-0.216C366.108,177.822,366.504,177.634,366.86,177.396z"/>
			<path fill="#FCFCFC" d="M389.408,175.614h-10.281c0.065,1.112,0.483,1.965,1.254,2.555c0.77,0.591,1.902,0.886,3.399,0.886
				c0.948,0,1.867-0.173,2.758-0.519c0.891-0.347,1.594-0.718,2.109-1.113h0.499v3.656c-1.016,0.413-1.972,0.713-2.87,0.897
				c-0.897,0.186-1.893,0.278-2.981,0.278c-2.813,0-4.968-0.642-6.465-1.923c-1.498-1.282-2.246-3.107-2.246-5.479
				c0-2.345,0.71-4.201,2.128-5.572c1.418-1.37,3.362-2.057,5.834-2.057c2.278,0,3.992,0.584,5.142,1.752
				c1.147,1.17,1.722,2.85,1.722,5.043L389.408,175.614L389.408,175.614z M384.941,172.943c-0.023-0.951-0.258-1.668-0.698-2.149
				c-0.44-0.479-1.128-0.721-2.06-0.721c-0.865,0-1.576,0.228-2.134,0.683c-0.558,0.456-0.869,1.186-0.937,2.188H384.941
				L384.941,172.943z"/>
			<path fill="#FCFCFC" d="M397.084,181.876h-4.506v-19.685h4.506V181.876z"/>
			<path fill="#FCFCFC" d="M415.64,174.779c0,2.336-0.672,4.177-2.017,5.521c-1.344,1.347-3.229,2.019-5.658,2.019
				c-2.43,0-4.315-0.672-5.659-2.019c-1.344-1.345-2.017-3.186-2.017-5.521c0-2.354,0.678-4.2,2.028-5.541
				c1.352-1.342,3.233-2.012,5.646-2.012c2.445,0,4.337,0.674,5.672,2.023S415.64,172.443,415.64,174.779z M410.111,178.232
				c0.291-0.362,0.51-0.799,0.655-1.311c0.146-0.51,0.218-1.216,0.218-2.117c0-0.836-0.074-1.535-0.225-2.102
				c-0.149-0.564-0.357-1.016-0.624-1.354c-0.267-0.347-0.586-0.591-0.96-0.733c-0.375-0.144-0.778-0.216-1.211-0.216
				c-0.434,0-0.817,0.06-1.154,0.178c-0.337,0.117-0.659,0.354-0.967,0.708c-0.274,0.329-0.493,0.78-0.655,1.354
				c-0.162,0.572-0.243,1.293-0.243,2.162c0,0.775,0.07,1.448,0.212,2.018c0.143,0.57,0.351,1.027,0.624,1.373
				c0.267,0.328,0.584,0.568,0.954,0.722c0.37,0.151,0.793,0.228,1.268,0.228c0.407,0,0.797-0.068,1.167-0.209
				C409.538,178.796,409.854,178.563,410.111,178.232z"/>
			<path fill="#FCFCFC" d="M423.364,181.876h-4.505v-19.685h4.505V181.876z"/>
			<path fill="#FCFCFC" d="M436.078,180.37c-0.24,0.187-0.54,0.409-0.897,0.671s-0.694,0.468-1.011,0.62
				c-0.44,0.202-0.898,0.353-1.372,0.448c-0.476,0.098-0.994,0.146-1.561,0.146c-1.332,0-2.446-0.418-3.345-1.253
				c-0.899-0.835-1.348-1.901-1.348-3.2c0-1.037,0.229-1.885,0.687-2.543c0.457-0.658,1.106-1.177,1.946-1.556
				c0.832-0.38,1.863-0.649,3.095-0.81c1.232-0.162,2.509-0.278,3.831-0.354v-0.076c0-0.784-0.316-1.325-0.948-1.625
				c-0.633-0.3-1.563-0.448-2.795-0.448c-0.741,0-1.531,0.133-2.371,0.397c-0.841,0.267-1.442,0.47-1.81,0.612h-0.412v-3.428
				c0.475-0.127,1.246-0.275,2.315-0.449c1.067-0.172,2.14-0.26,3.213-0.26c2.554,0,4.397,0.398,5.533,1.195
				c1.137,0.797,1.703,2.048,1.703,3.751v9.665h-4.455L436.078,180.37L436.078,180.37z M436.078,178.16v-2.951
				c-0.605,0.051-1.265,0.12-1.971,0.208c-0.708,0.089-1.244,0.19-1.61,0.31c-0.448,0.144-0.792,0.352-1.028,0.625
				c-0.237,0.272-0.355,0.633-0.355,1.078c0,0.293,0.024,0.533,0.074,0.719c0.051,0.185,0.175,0.36,0.375,0.528
				c0.191,0.168,0.42,0.292,0.688,0.372c0.266,0.08,0.682,0.12,1.246,0.12c0.449,0,0.905-0.093,1.367-0.276
				C435.323,178.706,435.73,178.463,436.078,178.16z"/>
			<path fill="#FCFCFC" d="M453.15,180.37c-0.241,0.187-0.54,0.409-0.897,0.671s-0.694,0.468-1.012,0.62
				c-0.439,0.202-0.897,0.353-1.372,0.448c-0.475,0.098-0.993,0.146-1.56,0.146c-1.332,0-2.446-0.418-3.345-1.253
				c-0.899-0.835-1.349-1.901-1.349-3.2c0-1.037,0.229-1.885,0.688-2.543c0.457-0.658,1.105-1.177,1.945-1.556
				c0.832-0.38,1.863-0.649,3.096-0.81c1.231-0.162,2.509-0.278,3.831-0.354v-0.076c0-0.784-0.316-1.325-0.948-1.625
				c-0.633-0.3-1.564-0.448-2.795-0.448c-0.741,0-1.531,0.133-2.371,0.397c-0.841,0.267-1.443,0.47-1.81,0.612h-0.412v-3.428
				c0.475-0.127,1.246-0.275,2.314-0.449c1.068-0.172,2.141-0.26,3.213-0.26c2.555,0,4.398,0.398,5.534,1.195
				s1.703,2.048,1.703,3.751v9.665h-4.455L453.15,180.37L453.15,180.37z M453.15,178.16v-2.951c-0.605,0.051-1.265,0.12-1.971,0.208
				c-0.708,0.089-1.244,0.19-1.61,0.31c-0.449,0.144-0.792,0.352-1.029,0.625c-0.236,0.272-0.354,0.633-0.354,1.078
				c0,0.293,0.024,0.533,0.074,0.719c0.051,0.185,0.175,0.36,0.375,0.528c0.19,0.168,0.42,0.292,0.687,0.372s0.683,0.12,1.247,0.12
				c0.449,0,0.905-0.093,1.367-0.276C452.396,178.706,452.802,178.463,453.15,178.16z"/>
			<path fill="#FCFCFC" d="M475.812,181.876h-4.505v-7.046c0-0.574-0.029-1.146-0.087-1.715c-0.06-0.569-0.158-0.988-0.3-1.26
				c-0.166-0.312-0.41-0.539-0.729-0.683c-0.321-0.144-0.768-0.215-1.342-0.215c-0.408,0-0.821,0.067-1.242,0.202
				c-0.42,0.135-0.875,0.35-1.366,0.646v10.068h-4.505V167.67h4.505v1.568c0.798-0.633,1.564-1.117,2.3-1.455
				s1.553-0.506,2.448-0.506c1.514,0,2.694,0.447,3.546,1.341c0.853,0.896,1.277,2.231,1.277,4.011V181.876L475.812,181.876z"/>
			<path fill="#FCFCFC" d="M502.329,181.876h-13.401v-18.837h4.792v15.193h8.609V181.876L502.329,181.876z"/>
			<path fill="#FCFCFC" d="M518.764,175.614h-10.282c0.066,1.112,0.484,1.965,1.254,2.555c0.771,0.591,1.903,0.886,3.4,0.886
				c0.948,0,1.867-0.173,2.758-0.519c0.89-0.347,1.593-0.718,2.109-1.113h0.499v3.656c-1.017,0.413-1.973,0.713-2.87,0.897
				c-0.898,0.186-1.894,0.278-2.982,0.278c-2.813,0-4.967-0.642-6.464-1.923c-1.498-1.282-2.247-3.107-2.247-5.479
				c0-2.345,0.71-4.201,2.128-5.572c1.418-1.37,3.363-2.057,5.834-2.057c2.279,0,3.993,0.584,5.143,1.752
				c1.146,1.17,1.722,2.85,1.722,5.043L518.764,175.614L518.764,175.614z M514.296,172.943c-0.024-0.951-0.259-1.668-0.698-2.149
				c-0.441-0.479-1.128-0.721-2.061-0.721c-0.864,0-1.575,0.228-2.134,0.683c-0.557,0.456-0.869,1.186-0.936,2.188H514.296
				L514.296,172.943z"/>
			<path fill="#FCFCFC" d="M530.894,181.751c-0.482,0.126-0.994,0.226-1.535,0.296c-0.541,0.071-1.202,0.107-1.982,0.107
				c-1.747,0-3.048-0.358-3.9-1.075c-0.854-0.718-1.278-1.944-1.278-3.683v-6.642h-1.848v-3.086h1.848v-4.062h4.505v4.062h4.192
				v3.086h-4.192v5.043c0,0.498,0.005,0.935,0.013,1.306c0.009,0.371,0.074,0.705,0.198,1c0.116,0.297,0.321,0.53,0.616,0.703
				c0.294,0.174,0.725,0.26,1.287,0.26c0.232,0,0.537-0.051,0.915-0.15c0.377-0.102,0.641-0.193,0.79-0.277h0.373L530.894,181.751
				L530.894,181.751z"/>
			<path fill="#FCFCFC" d="M542.535,181.751c-0.481,0.126-0.994,0.226-1.534,0.296c-0.541,0.071-1.202,0.107-1.983,0.107
				c-1.747,0-3.047-0.358-3.9-1.075c-0.853-0.718-1.277-1.944-1.277-3.683v-6.642h-1.849v-3.086h1.849v-4.062h4.505v4.062h4.191
				v3.086h-4.191v5.043c0,0.498,0.004,0.935,0.012,1.306c0.009,0.371,0.075,0.705,0.199,1c0.116,0.297,0.321,0.53,0.616,0.703
				c0.294,0.174,0.724,0.26,1.287,0.26c0.231,0,0.536-0.051,0.914-0.15c0.378-0.102,0.642-0.193,0.79-0.277h0.373L542.535,181.751
				L542.535,181.751z"/>
			<path fill="#FCFCFC" d="M559.021,175.614h-10.282c0.066,1.112,0.484,1.965,1.254,2.555c0.771,0.591,1.903,0.886,3.4,0.886
				c0.948,0,1.867-0.173,2.758-0.519c0.891-0.347,1.593-0.718,2.109-1.113h0.499v3.656c-1.017,0.413-1.972,0.713-2.87,0.897
				c-0.898,0.186-1.893,0.278-2.982,0.278c-2.813,0-4.967-0.642-6.464-1.923c-1.498-1.282-2.247-3.107-2.247-5.479
				c0-2.345,0.71-4.201,2.128-5.572c1.418-1.37,3.363-2.057,5.834-2.057c2.279,0,3.993,0.584,5.143,1.752
				c1.146,1.17,1.722,2.85,1.722,5.043L559.021,175.614L559.021,175.614z M554.553,172.943c-0.024-0.951-0.258-1.668-0.698-2.149
				c-0.441-0.479-1.128-0.721-2.06-0.721c-0.865,0-1.576,0.228-2.135,0.683c-0.557,0.456-0.869,1.186-0.936,2.188H554.553
				L554.553,172.943z"/>
			<path fill="#FCFCFC" d="M572.348,172.009h-0.398c-0.19-0.067-0.498-0.118-0.922-0.151c-0.423-0.033-0.775-0.051-1.058-0.051
				c-0.641,0-1.204,0.043-1.694,0.127c-0.489,0.084-1.017,0.228-1.581,0.431v9.513h-4.505V167.67h4.505v2.087
				c0.988-0.86,1.848-1.432,2.577-1.714c0.73-0.282,1.403-0.424,2.019-0.424c0.156,0,0.336,0.004,0.534,0.013
				c0.199,0.009,0.374,0.021,0.523,0.038V172.009L572.348,172.009z"/>
			<path fill="#FCFCFC" d="M592.276,182.243c-1.382,0-2.656-0.207-3.825-0.62s-2.174-1.029-3.014-1.848
				c-0.84-0.817-1.491-1.838-1.953-3.062c-0.461-1.223-0.692-2.636-0.692-4.237c0-1.492,0.222-2.848,0.661-4.062
				c0.441-1.215,1.082-2.256,1.923-3.125c0.807-0.835,1.808-1.479,3-1.937c1.194-0.455,2.498-0.683,3.912-0.683
				c0.782,0,1.487,0.044,2.115,0.134c0.628,0.088,1.209,0.203,1.741,0.348c0.557,0.16,1.063,0.34,1.516,0.537
				c0.454,0.199,0.852,0.381,1.192,0.551v4.566h-0.55c-0.232-0.201-0.525-0.439-0.879-0.718c-0.354-0.276-0.755-0.55-1.204-0.817
				c-0.458-0.27-0.953-0.496-1.485-0.681s-1.103-0.276-1.71-0.276c-0.674,0-1.314,0.106-1.922,0.321
				c-0.606,0.216-1.169,0.57-1.686,1.067c-0.489,0.479-0.888,1.115-1.19,1.906s-0.455,1.75-0.455,2.877
				c0,1.18,0.164,2.164,0.492,2.955c0.329,0.791,0.743,1.414,1.242,1.867c0.507,0.463,1.072,0.795,1.696,0.991
				c0.624,0.198,1.239,0.298,1.848,0.298c0.582,0,1.158-0.089,1.729-0.266c0.569-0.176,1.096-0.415,1.578-0.717
				c0.407-0.243,0.786-0.504,1.136-0.78c0.351-0.276,0.638-0.517,0.861-0.718h0.499v4.504c-0.466,0.211-0.911,0.408-1.336,0.594
				c-0.424,0.186-0.869,0.348-1.335,0.48c-0.607,0.178-1.177,0.313-1.709,0.404C593.939,182.195,593.207,182.243,592.276,182.243z"
				/>
		</g>
	</g>
</g>
</svg>
